<svg xmlns="http://www.w3.org/2000/svg" xmlns:xlink="http://www.w3.org/1999/xlink" width="500" zoomAndPan="magnify" viewBox="0 0 375 374.999991" height="500" preserveAspectRatio="xMidYMid meet" version="1.0"><defs><clipPath id="426b89757d"><path d="M 36 11.671875 L 352.546875 11.671875 L 352.546875 260 L 36 260 Z M 36 11.671875 " clip-rule="nonzero"/></clipPath><clipPath id="da857e062a"><path d="M 0.671875 115 L 318 115 L 318 363.546875 L 0.671875 363.546875 Z M 0.671875 115 " clip-rule="nonzero"/></clipPath><clipPath id="d6799c2645"><path d="M 113.199219 110.128906 L 239.285156 110.128906 L 239.285156 265 L 113.199219 265 Z M 113.199219 110.128906 " clip-rule="nonzero"/></clipPath><clipPath id="12d4284202"><rect x="0" width="363" y="0" height="374"/></clipPath></defs><g transform="matrix(1, 0, 0, 1, 11, 0)"><g clip-path="url(#12d4284202)"><g clip-path="url(#426b89757d)"><path fill="#f4bc50" d="M 282.535156 187.710938 C 282.535156 215.582031 271.644531 240.886719 254 259.792969 L 303.347656 259.792969 C 309.375 249.386719 314.085938 238.105469 317.261719 226.273438 L 350.671875 214.441406 C 352.097656 205.679688 352.753906 196.804688 352.753906 187.710938 C 352.753906 178.621094 352.097656 169.746094 350.671875 160.984375 L 317.261719 149.152344 C 314.085938 137.320312 309.375 126.039062 303.347656 115.632812 L 318.574219 83.535156 C 308.058594 69.074219 295.351562 56.367188 280.890625 45.851562 L 248.792969 61.078125 C 238.386719 55.050781 227.105469 50.339844 215.273438 47.164062 L 203.441406 13.753906 C 194.679688 12.328125 185.804688 11.671875 176.710938 11.671875 C 167.621094 11.671875 158.746094 12.328125 149.984375 13.753906 L 138.152344 47.164062 C 126.320312 50.339844 115.039062 55.050781 104.632812 61.078125 L 72.535156 45.851562 C 58.644531 55.949219 46.417969 68.132812 36.140625 81.890625 L 176.710938 81.890625 C 235.101562 81.890625 282.535156 129.324219 282.535156 187.710938 Z M 282.535156 187.710938 " fill-opacity="1" fill-rule="nonzero"/></g><g clip-path="url(#da857e062a)"><path fill="#4a617e" d="M 176.710938 293.535156 C 118.324219 293.535156 70.890625 246.101562 70.890625 187.710938 C 70.890625 159.84375 81.78125 134.539062 99.425781 115.632812 L 50.078125 115.632812 C 44.050781 126.039062 39.339844 137.320312 36.164062 149.152344 L 2.753906 160.984375 C 1.328125 169.746094 0.671875 178.621094 0.671875 187.710938 C 0.671875 196.804688 1.328125 205.679688 2.753906 214.441406 L 36.164062 226.273438 C 39.339844 238.105469 44.050781 249.386719 50.078125 259.792969 L 34.851562 291.890625 C 45.367188 306.351562 58.074219 319.058594 72.535156 329.574219 L 104.632812 314.347656 C 115.039062 320.375 126.320312 325.085938 138.152344 328.261719 L 149.984375 361.671875 C 158.746094 363.097656 167.621094 363.753906 176.710938 363.753906 C 185.804688 363.753906 194.679688 363.097656 203.441406 361.671875 L 215.273438 328.261719 C 227.105469 325.085938 238.386719 320.375 248.792969 314.347656 L 280.890625 329.574219 C 294.78125 319.476562 307.007812 307.292969 317.285156 293.535156 Z M 176.710938 293.535156 " fill-opacity="1" fill-rule="nonzero"/></g><g clip-path="url(#d6799c2645)"><path fill="#4a617e" d="M 176.492188 110.128906 L 113.199219 138.261719 L 113.199219 180.460938 C 113.199219 219.527344 140.167969 255.957031 176.492188 264.855469 C 212.820312 255.957031 239.789062 219.527344 239.789062 180.460938 L 239.789062 138.261719 Z M 162.429688 222.65625 L 134.296875 194.527344 L 144.25 184.574219 L 162.429688 202.753906 L 208.738281 156.441406 L 218.691406 166.394531 Z M 162.429688 222.65625 " fill-opacity="1" fill-rule="nonzero"/></g></g></g></svg>